<svg width="160" height="160" viewBox="0 0 160 160" fill="none" xmlns="http://www.w3.org/2000/svg">
<g clip-path="url(#clip0_1341_2723)">
<path d="M79.9964 159.993C124.177 159.993 159.993 124.177 159.993 79.9964C159.993 35.8156 124.177 0 79.9964 0C35.8156 0 0 35.8156 0 79.9964C0 124.177 35.8156 159.993 79.9964 159.993Z" fill="#131226"/>
<path d="M128.531 128.532C155.336 101.726 155.336 58.2662 128.531 31.4608C101.725 4.65533 58.2649 4.65534 31.4594 31.4608C4.65394 58.2663 4.65394 101.726 31.4594 128.532C58.2649 155.337 101.725 155.337 128.531 128.532Z" fill="#0D2B3C"/>
<path d="M12.6801 66.5334C11.8115 70.8907 11.3555 75.3929 11.3555 80.0036C11.3555 81.2196 11.3917 82.4284 11.4496 83.6299C15.6694 83.7023 19.303 82.8482 21.8291 80.6478C34.3656 69.7254 58.0852 72.8233 58.0852 72.8233C58.0852 72.8233 50.8036 60.2506 12.6801 66.5406V66.5334Z" fill="#40B9BC"/>
<path d="M19.3901 47.7575C54.8933 36.8351 63.9845 55.097 65.8809 60.9889C65.8809 60.9889 68.0523 27.6571 40.7065 23.7123C31.8397 29.9154 24.5074 38.1525 19.3828 47.7575H19.3901Z" fill="#BE1D43"/>
<path d="M79.7202 51.4562C79.7202 51.4562 83.4334 28.0914 90.0201 12.0878C86.7485 11.61 83.4044 11.3567 79.9952 11.3567C76.4123 11.3567 72.8874 11.6318 69.4492 12.1601C76.0142 28.1565 79.713 51.4562 79.713 51.4562H79.7202Z" fill="#EF7B1A"/>
<path d="M119.198 23.6471C91.3601 27.2807 93.5605 60.9889 93.5605 60.9889C95.4714 55.0608 104.664 36.6107 140.717 47.9602C135.578 38.2393 128.166 29.9009 119.198 23.6471Z" fill="#BE1D43"/>
<path d="M147.332 66.6275C108.709 60.1131 101.355 72.8161 101.355 72.8161C101.355 72.8161 125.075 69.7182 137.612 80.6406C140.246 82.9351 144.09 83.7675 148.548 83.6082C148.614 82.4139 148.643 81.2124 148.643 80.0036C148.643 75.4291 148.194 70.9559 147.332 66.6275Z" fill="#40B9BC"/>
<path d="M79.9963 148.643C81.9071 148.643 83.7963 148.564 85.6637 148.412C81.1326 140.551 80.8793 128.586 80.8793 121.189C80.8793 121.189 85.4177 141.383 90.9549 147.775C109.441 144.807 125.459 134.464 135.897 119.85C133.979 118.026 129.78 115.529 124.055 120.718C124.055 120.718 126.574 110.759 137.894 115.413C135.803 109.868 130.273 106.01 123.889 106.495C117.106 107.017 111.62 112.597 111.186 119.379C110.961 122.904 112.069 126.154 114.037 128.702C110.476 129.375 107.407 131.416 105.381 134.254C104.845 130.968 102.008 128.456 98.5694 128.456C97.0132 128.456 95.5873 128.977 94.4292 129.846C92.9019 128.594 91.2372 126.639 89.5796 124.157C85.215 117.606 83.3186 107.632 82.602 101.921C82.421 100.473 81.1906 99.3947 79.7357 99.3947C78.2808 99.3947 77.0503 100.473 76.8694 101.921C76.1455 107.632 73.7569 117.606 69.3923 124.157C63.8189 132.509 59.9248 133.349 57.6013 124.157H57.5579C55.6036 117.251 49.2629 112.177 41.728 112.177C34.6925 112.177 28.7137 116.6 26.3613 122.81C28.7572 125.807 31.3991 128.601 34.2509 131.156C42.8282 123.744 50.0809 133.812 50.0809 133.812C43.9139 130.982 39.6941 131.749 36.9146 133.421C45.1516 140.081 54.9594 144.865 65.7008 147.145C70.1813 141.999 74.4952 132.415 74.4952 132.415C74.4952 135.658 72.6278 143.2 69.8628 147.891C73.1779 148.383 76.5654 148.636 80.018 148.636L79.9963 148.643Z" fill="#FCC009"/>
<path d="M81.9207 59.1866C81.3345 58.5352 80.5238 58.2094 79.7203 58.2094C78.9169 58.2094 78.1062 58.5352 77.5199 59.1866C61.9723 76.4062 58.1578 99.525 62.631 102.594C67.3069 105.808 73.1481 91.7874 79.4308 91.6426H80.0171C86.2998 91.7874 92.1411 105.808 96.8169 102.594C101.29 99.5177 97.4756 76.399 81.928 59.1866H81.9207ZM79.7203 82.0375C77.1725 82.0375 75.1096 79.9747 75.1096 77.4268C75.1096 74.879 77.1725 72.8161 79.7203 72.8161C82.2682 72.8161 84.3311 74.879 84.3311 77.4268C84.3311 79.9747 82.2682 82.0375 79.7203 82.0375Z" fill="#FEFAD8"/>
<path d="M77.5199 59.1866C78.1062 58.5352 78.9169 58.2094 79.7203 58.2094V72.8161C77.1725 72.8161 75.1096 74.879 75.1096 77.4268C75.1096 79.9747 77.1725 82.0375 79.7203 82.0375V91.6426H79.4308C73.1481 91.7874 67.3069 105.808 62.631 102.594C58.1578 99.5177 61.9723 76.399 77.5199 59.1866Z" fill="#FAE1B6"/>
</g>
<defs>
<clipPath id="clip0_1341_2723">
<rect width="160" height="160" fill="white"/>
</clipPath>
</defs>
</svg>
